# xmcd
#
# Track frame offsets: 
#        182
#        34345
#        63977
#        101205
#
# Disc length: 1857 seconds
#
# Revision: 2
# Processed by: cddbd v1.5.2PL0 Copyright (c) Steve Scherf et al.
# Submitted via: ExactAudioCopyFreeDBPlugin 1.0
#
DISCID=33073f04
DTITLE=St. Germain - Motherland EP
DYEAR=1993
DGENRE=Nu-Jazz
TTITLE0=Alabama Blues
TTITLE1=Live Jazz
TTITLE2=Soul Salsa Soul
TTITLE3=Alabama Blues (1965 Mix)
EXTD=
EXTT0=
EXTT1=
EXTT2=
EXTT3=
PLAYORDER=
